<?xml version="1.0" standalone="no"?>
<!DOCTYPE svg PUBLIC "-//W3C//DTD SVG 20010904//EN"
 "http://www.w3.org/TR/2001/REC-SVG-20010904/DTD/svg10.dtd">
<svg version="1.0" xmlns="http://www.w3.org/2000/svg"
 width="512.000000pt" height="512.000000pt" viewBox="0 0 512.000000 512.000000"
 preserveAspectRatio="xMidYMid meet">

<g transform="translate(0.000000,512.000000) scale(0.100000,-0.100000)"
fill="#000000" stroke="none">
<path d="M135 4431 c-47 -12 -72 -28 -102 -67 -39 -52 -39 -133 -1 -190 14
-21 344 -392 732 -823 388 -431 706 -787 706 -791 0 -4 -318 -360 -706 -791
-388 -431 -717 -801 -731 -821 -36 -53 -40 -112 -11 -168 29 -56 74 -87 141
-95 29 -3 284 -5 567 -3 486 3 517 4 546 22 42 25 1572 1725 1601 1778 26 47
29 94 9 142 -17 41 -1539 1738 -1597 1781 l-41 30 -541 2 c-298 1 -555 -2
-572 -6z"/>
<path d="M2335 4425 c-47 -16 -101 -74 -110 -117 -4 -16 -4 -49 0 -73 7 -53
-55 20 808 -939 362 -401 657 -732 657 -736 0 -4 -318 -360 -706 -791 -389
-431 -718 -799 -733 -818 -21 -28 -26 -45 -26 -96 0 -52 4 -67 28 -98 57 -75
26 -72 653 -72 l561 0 35 25 c52 37 1588 1749 1604 1787 18 41 18 85 0 126
-16 38 -1552 1750 -1604 1787 l-35 25 -546 2 c-452 2 -553 0 -586 -12z"/>
</g>
</svg>
